<svg width="31" height="44" viewBox="0 0 31 44" fill="none" xmlns="http://www.w3.org/2000/svg">
    <path d="M20.125 14.7969C20.3542 14.7969 20.7448 14.8333 21.2969 14.9062C21.849 14.9792 22.4531 15.1875 23.1094 15.5312C23.776 15.8646 24.3802 16.4219 24.9219 17.2031C24.8906 17.2344 24.7396 17.349 24.4688 17.5469C24.1979 17.7344 23.8958 18.0156 23.5625 18.3906C23.2292 18.7552 22.9375 19.224 22.6875 19.7969C22.4375 20.3594 22.3125 21.0312 22.3125 21.8125C22.3125 22.7083 22.4688 23.4688 22.7812 24.0938C23.1042 24.7188 23.474 25.224 23.8906 25.6094C24.3177 25.9844 24.6927 26.2604 25.0156 26.4375C25.349 26.6146 25.526 26.7083 25.5469 26.7188C25.5365 26.7604 25.401 27.1302 25.1406 27.8281C24.8906 28.526 24.474 29.3021 23.8906 30.1562C23.3802 30.8958 22.8281 31.5781 22.2344 32.2031C21.651 32.8281 20.9479 33.1406 20.125 33.1406C19.5729 33.1406 19.1198 33.0625 18.7656 32.9062C18.4115 32.7396 18.0469 32.5781 17.6719 32.4219C17.2969 32.2552 16.7917 32.1719 16.1562 32.1719C15.5417 32.1719 15.026 32.2552 14.6094 32.4219C14.2031 32.5885 13.8125 32.7552 13.4375 32.9219C13.0729 33.0885 12.6406 33.1719 12.1406 33.1719C11.3802 33.1719 10.7135 32.8698 10.1406 32.2656C9.56771 31.6615 8.97917 30.9375 8.375 30.0938C7.67708 29.0938 7.07812 27.875 6.57812 26.4375C6.08854 24.9896 5.84375 23.5312 5.84375 22.0625C5.84375 20.4896 6.14062 19.1719 6.73438 18.1094C7.32812 17.0365 8.08854 16.2292 9.01562 15.6875C9.95312 15.1354 10.9219 14.8594 11.9219 14.8594C12.4531 14.8594 12.9531 14.9479 13.4219 15.125C13.8906 15.2917 14.3281 15.4635 14.7344 15.6406C15.151 15.8177 15.526 15.9062 15.8594 15.9062C16.1823 15.9062 16.5573 15.8125 16.9844 15.625C17.4115 15.4375 17.8906 15.2552 18.4219 15.0781C18.9531 14.8906 19.5208 14.7969 20.125 14.7969ZM19.2656 12.8125C18.8594 13.3021 18.349 13.7135 17.7344 14.0469C17.1198 14.3698 16.5365 14.5312 15.9844 14.5312C15.8698 14.5312 15.7604 14.5208 15.6562 14.5C15.6458 14.4688 15.6354 14.4115 15.625 14.3281C15.6146 14.2448 15.6094 14.1562 15.6094 14.0625C15.6094 13.4375 15.7448 12.8333 16.0156 12.25C16.2865 11.6562 16.5938 11.1667 16.9375 10.7812C17.375 10.2604 17.9271 9.82812 18.5938 9.48438C19.2604 9.14062 19.8958 8.95833 20.5 8.9375C20.5312 9.07292 20.5469 9.23438 20.5469 9.42188C20.5469 10.0469 20.4271 10.6562 20.1875 11.25C19.9479 11.8333 19.6406 12.3542 19.2656 12.8125Z" fill="black"/>
</svg>
